HIERARCHY
ROOT Hips
{
	OFFSET 0.00000 0.00000 0.00000
	CHANNELS 6 Xposition Yposition Zposition Zrotation Yrotation Xrotation 
	JOINT LHipJoint
	{
		OFFSET 0 0 0
		CHANNELS 3 Zrotation Yrotation Xrotation
		JOINT LeftUpLeg
		{
			OFFSET 1.57338 -1.94743 0.52196
			CHANNELS 3 Zrotation Yrotation Xrotation
			JOINT LeftLeg
			{
				OFFSET 2.60333 -7.15259 0.00000
				CHANNELS 3 Zrotation Yrotation Xrotation
				JOINT LeftFoot
				{
					OFFSET 2.77855 -7.63400 0.00000
					CHANNELS 3 Zrotation Yrotation Xrotation
					JOINT LeftToeBase
					{
						OFFSET 0.19847 -0.54529 2.28466
						CHANNELS 3 Zrotation Yrotation Xrotation
						End Site
						{
							OFFSET 0.00000 -0.00000 1.17993
						}
					}
				}
			}
		}
	}
	JOINT RHipJoint
	{
		OFFSET 0 0 0
		CHANNELS 3 Zrotation Yrotation Xrotation
		JOINT RightUpLeg
		{
			OFFSET -1.61527 -1.94743 0.52196
			CHANNELS 3 Zrotation Yrotation Xrotation
			JOINT RightLeg
			{
				OFFSET -2.53829 -6.97390 0.00000
				CHANNELS 3 Zrotation Yrotation Xrotation
				JOINT RightFoot
				{
					OFFSET -2.80762 -7.71387 0.00000
					CHANNELS 3 Zrotation Yrotation Xrotation
					JOINT RightToeBase
					{
						OFFSET -0.30536 -0.83898 2.28801
						CHANNELS 3 Zrotation Yrotation Xrotation
						End Site
						{
							OFFSET -0.00000 -0.00000 1.21323
						}
					}
				}
			}
		}
	}
	JOINT LowerBack
	{
		OFFSET 0 0 0
		CHANNELS 3 Zrotation Yrotation Xrotation
		JOINT Spine
		{
			OFFSET -0.04381 1.99497 -0.19778
			CHANNELS 3 Zrotation Yrotation Xrotation
			JOINT Spine1
			{
				OFFSET -0.01959 2.01295 -0.04372
				CHANNELS 3 Zrotation Yrotation Xrotation
				JOINT Neck
				{
					OFFSET 0 0 0
					CHANNELS 3 Zrotation Yrotation Xrotation
					JOINT Neck1
					{
						OFFSET -0.05459 1.76913 0.09708
						CHANNELS 3 Zrotation Yrotation Xrotation
						JOINT Head
						{
							OFFSET 0.09461 1.77368 -0.11172
							CHANNELS 3 Zrotation Yrotation Xrotation
							End Site
							{
								OFFSET 0.03812 1.78157 -0.04834
							}
						}
					}
				}
				JOINT LeftShoulder
				{
					OFFSET 0 0 0
					CHANNELS 3 Zrotation Yrotation Xrotation
					JOINT LeftArm
					{
						OFFSET 3.50922 1.24034 -0.28866
						CHANNELS 3 Zrotation Yrotation Xrotation
						JOINT LeftForeArm
						{
							OFFSET 5.40188 -0.00000 0.00000
							CHANNELS 3 Zrotation Yrotation Xrotation
							JOINT LeftHand
							{
								OFFSET 3.68559 -0.00000 0.00000
								CHANNELS 3 Zrotation Yrotation Xrotation
								JOINT LeftFingerBase
								{
									OFFSET 0 0 0
									CHANNELS 3 Zrotation Yrotation Xrotation
									JOINT LeftHandIndex1
									{
										OFFSET 0.61753 -0.00000 0.00000
										CHANNELS 3 Zrotation Yrotation Xrotation
										End Site
										{
											OFFSET 0.49787 -0.00000 0.00000
										}
									}
								}
								JOINT LThumb
								{
									OFFSET 0 0 0
									CHANNELS 3 Zrotation Yrotation Xrotation
									End Site
									{
										OFFSET 0.50547 -0.00000 0.50547
									}
								}
							}
						}
					}
				}
				JOINT RightShoulder
				{
					OFFSET 0 0 0
					CHANNELS 3 Zrotation Yrotation Xrotation
					JOINT RightArm
					{
						OFFSET -2.95373 1.39649 -0.27346
						CHANNELS 3 Zrotation Yrotation Xrotation
						JOINT RightForeArm
						{
							OFFSET -6.10670 -0.00000 -0.00000
							CHANNELS 3 Zrotation Yrotation Xrotation
							JOINT RightHand
							{
								OFFSET -3.63052 -0.00000 0.00000
								CHANNELS 3 Zrotation Yrotation Xrotation
								JOINT RightFingerBase
								{
									OFFSET 0 0 0
									CHANNELS 3 Zrotation Yrotation Xrotation
									JOINT RightHandIndex1
									{
										OFFSET -0.58385 -0.00000 0.00000
										CHANNELS 3 Zrotation Yrotation Xrotation
										End Site
										{
											OFFSET -0.47071 -0.00000 0.00000
										}
									}
								}
								JOINT RThumb
								{
									OFFSET 0 0 0
									CHANNELS 3 Zrotation Yrotation Xrotation
									End Site
									{
										OFFSET -0.47790 -0.00000 0.47790
									}
								}
							}
						}
					}
				}
			}
		}
	}
}
MOTION
Frames: 11
Frame Time: 0.033333
-0.2009 18.6574 0.9823 0 0 0 0 0 0 -21 0 0 0 0 0 0 0 0 0 0 0 0 0 0 21 0 0 0 0 0 0 0 0 0 0 0 0 0 0 0 0 0 0 0 0 0 0 -16 0 0 21 0 0 11 0 0 0 -8 0 0 0 0 0 0 0 0 0 0 0 0 0 0 0 0 0 0 0 0 8 0 0 0 0 0 0 0 0 0 0 0 0 0 0 0 0 0
-0.2809 18.6579 0.9522 3.1939 -23.6593 -0.6423 0.0000 0.0000 0.0000 -13.9798 -4.0213 -6.4878 2.4933 9.8257 28.4142 0.2310 9.2174 -16.6112 0.8121 -5.7508 -16.0632 0.0000 0.0000 0.0000 19.2770 14.1197 -2.7003 -2.4658 -9.7754 28.2525 -1.1420 -12.6089 -28.3049 -0.0037 -0.3939 1.0824 -1.5344 1.6671 2.5867 -1.0709 2.1777 1.2379 -0.2963 1.0840 -0.1963 -3.6702 0.7169 -14.3776 8.7528 0.5292 10.2032 3.4112 0.7544 5.3966 -0.0000 0.0000 0.0000 -62.1240 -28.2665 3.1464 17.1593 -27.0672 -4.1595 -0.0000 0.0000 -62.8814 19.2175 27.4053 9.1151 -7.1250 0.0000 -0.0000 -12.4887 58.3115 -4.1079 -0.0000 0.0000 0.0000 63.9297 22.1267 40.2892 -22.4772 33.5122 -6.8475 0.0000 -0.0000 -22.4369 -13.3907 -1.1458 0.2727 7.1250 -0.0000 -0.0000 10.4707 -31.0552 3.6221
-0.3867 18.6550 0.9188 3.5452 -23.2641 -1.0789 0.0000 0.0000 0.0000 -14.0162 -4.1547 -6.0537 2.4696 9.7824 28.2749 0.1866 9.3485 -16.1719 0.8101 -5.7437 -16.0425 0.0000 0.0000 0.0000 19.3118 13.6831 -2.5740 -2.5179 -9.8704 28.5581 -1.2535 -12.1509 -28.6845 -0.0155 -0.8048 2.2118 -1.8122 1.8701 2.4249 -1.1612 2.4434 1.0904 -0.2386 1.2171 -0.2660 -3.7813 0.9203 -14.8199 8.9625 0.7661 10.8435 3.5351 0.9000 5.6537 -0.0000 0.0000 0.0000 -58.7643 -33.3355 1.5092 17.6698 -27.7324 -4.3945 -0.0000 0.0000 -65.9583 20.3092 26.8658 9.4946 -7.1250 0.0000 -0.0000 -11.0232 58.0151 -3.5390 -0.0000 0.0000 0.0000 61.5973 27.9758 37.3710 -24.3667 35.5496 -7.9187 0.0000 -0.0000 -28.9981 -12.8429 -2.1376 0.4872 7.1250 -0.0000 -0.0000 11.0255 -32.0424 3.5537
-0.4976 18.6518 0.8956 3.8205 -22.3913 -1.4958 0.0000 0.0000 0.0000 -13.9686 -4.5702 -5.4481 2.3810 9.6183 27.7494 0.1338 9.5180 -15.6425 0.8200 -5.7779 -16.1414 0.0000 0.0000 0.0000 19.4744 13.0851 -2.3988 -2.5786 -9.9795 28.9102 -1.3193 -12.1495 -29.1334 -0.0233 -0.9859 2.7099 -2.0251 1.9653 2.3091 -1.2482 2.5654 0.9228 -0.2117 1.2793 -0.3794 -3.7728 0.9570 -15.0898 9.1058 0.7698 11.2895 3.5932 0.9259 5.8386 0.0000 -0.0000 0.0000 -55.0719 -38.3431 0.0272 18.4869 -28.7761 -4.7813 -0.0000 0.0000 -68.8274 19.9785 27.2668 9.4560 -7.1250 0.0000 -0.0000 -11.5946 58.3435 -3.8174 0.0000 -0.0000 0.0000 59.0247 33.5844 33.2843 -26.1666 37.3727 -8.9886 0.0000 -0.0000 -36.8556 -12.0510 -0.8738 0.1865 7.1250 -0.0000 -0.0000 11.4894 -30.7542 4.0714
-0.6137 18.6457 0.8788 3.9109 -21.5218 -1.8893 0.0000 0.0000 0.0000 -13.6515 -4.4696 -5.0946 2.3416 9.5440 27.5122 0.1583 9.0720 -15.4521 0.8320 -5.8190 -16.2600 0.0000 0.0000 0.0000 19.8159 12.3484 -2.0214 -2.6039 -10.0244 29.0559 -1.3767 -12.0130 -29.4066 -0.0326 -1.1656 3.2046 -1.9890 2.0607 2.2934 -1.4156 2.6900 0.7920 -0.4089 1.3431 -0.4963 -3.5008 0.8404 -15.4122 9.2769 0.5058 11.6737 3.5924 0.8368 6.0346 0.0000 0.0000 0.0000 -50.5903 -42.8496 -1.5529 19.6918 -30.2693 -5.3751 -0.0000 0.0000 -72.3090 19.2855 27.4331 9.1578 -7.1250 0.0000 -0.0000 -12.4314 58.3543 -4.1016 0.0000 0.0000 0.0000 56.0717 39.3193 28.5443 -27.2193 38.3875 -9.6350 0.0000 -0.0000 -44.9089 -12.0601 -1.3618 0.2909 7.1250 -0.0000 -0.0000 11.5438 -31.2433 3.9531
-0.7228 18.6343 0.8652 3.9577 -20.4110 -1.9049 0.0000 0.0000 0.0000 -13.2570 -4.5354 -5.3620 2.3591 9.5771 27.6178 0.1523 8.4647 -14.6486 0.8087 -5.7390 -16.0291 0.0000 0.0000 0.0000 20.1461 11.9492 -1.9462 -2.6333 -10.0763 29.2240 -1.4138 -12.1130 -29.7358 -0.0472 -1.4020 3.8556 -1.8949 2.0964 1.9818 -1.4968 2.7447 0.5791 -0.5384 1.3718 -0.5321 -3.7846 0.7292 -15.2685 9.7738 0.3341 11.7723 3.7849 0.7789 6.0524 0.0000 0.0000 0.0000 -45.9613 -46.7028 -3.4503 21.1792 -32.0369 -6.1447 -0.0000 0.0000 -74.8522 19.1102 27.4244 9.0669 -7.1250 0.0000 -0.0000 -12.6143 58.3065 -4.1486 0.0000 0.0000 0.0000 51.8768 44.2624 23.2693 -28.6286 39.6885 -10.5227 0.0000 -0.0000 -52.0661 -12.1459 -1.8990 0.4086 7.1250 -0.0000 -0.0000 11.5462 -31.7837 3.8009
-0.8246 18.6143 0.8528 3.8380 -18.7769 -2.0203 0.0000 0.0000 0.0000 -12.5860 -4.5820 -6.0225 2.4980 9.8342 28.4416 0.1884 7.0597 -13.6279 0.7962 -5.6953 -15.9029 0.0000 0.0000 0.0000 20.6682 11.5533 -1.5601 -2.6511 -10.1076 29.3258 -1.3927 -12.6281 -30.0243 -0.0227 -0.9734 2.6756 -1.5852 1.8501 1.9724 -1.4905 2.4237 0.5939 -0.6958 1.2113 -0.4976 -3.7507 0.5559 -15.9695 9.4184 0.0702 13.0121 3.6750 0.6609 6.5842 -0.0000 0.0000 0.0000 -40.7065 -50.0901 -7.0086 23.1136 -34.2128 -7.2021 -0.0000 0.0000 -76.8055 17.0738 27.9947 8.2037 -7.1250 0.0000 -0.0000 -15.1197 58.4142 -5.0346 -0.0000 0.0000 0.0000 46.7627 49.2698 17.0993 -29.5937 40.5426 -11.1446 0.0000 -0.0000 -57.1017 -12.2339 -2.4632 0.5339 7.1250 -0.0000 -0.0000 11.5525 -32.3517 3.6418
-0.9126 18.6091 0.8625 4.0402 -17.5491 -2.2827 0.0000 0.0000 0.0000 -12.4146 -4.4373 -6.6283 2.6729 10.1457 29.4498 0.1538 6.2654 -12.2021 1.0110 -6.3976 -17.9424 0.0000 0.0000 0.0000 20.6764 11.0854 -0.9813 -2.6303 -10.0710 29.2071 -1.4264 -12.5302 -30.1627 -0.0166 -0.8331 2.2897 -1.2768 1.7527 1.6117 -1.6060 2.3112 0.7276 -0.9681 1.1544 -0.1420 -3.6993 0.5672 -15.9715 9.0128 0.0518 14.3600 3.5605 0.6399 7.0176 0.0000 -0.0000 0.0000 -34.9326 -51.5384 -8.9702 26.6739 -37.8665 -9.2983 -0.0000 0.0000 -81.2293 16.9639 27.1687 7.9295 -7.1250 0.0000 -0.0000 -14.7402 57.5844 -4.6086 0.0000 -0.0000 0.0000 40.5073 53.7178 9.9245 -30.2673 41.1214 -11.5850 0.0000 -0.0000 -60.6269 -14.0975 -3.4204 0.8584 7.1250 -0.0000 -0.0000 10.1904 -33.3783 2.9429
-0.9916 18.5989 0.8528 3.8304 -16.1683 -2.4830 0.0000 0.0000 0.0000 -11.6684 -4.5707 -7.5942 2.8752 10.4903 30.5795 0.1404 5.1706 -10.8160 1.0366 -6.4755 -18.1706 0.0000 0.0000 0.0000 21.3085 10.8074 -0.3174 -2.5895 -9.9989 28.9731 -1.3056 -13.4643 -30.1722 -0.0027 -0.3338 0.9171 -0.6965 1.6804 1.8656 -1.5434 2.2194 0.7058 -1.2355 1.1099 -0.2876 -3.5293 0.6485 -14.8943 8.3398 0.1480 15.6033 3.3312 0.6292 7.2247 0.0000 0.0000 0.0000 -29.1849 -52.7934 -11.5152 29.8184 -40.7372 -11.2909 -0.0000 0.0000 -83.8259 16.3149 26.9566 7.5583 -7.1250 0.0000 -0.0000 -15.2944 57.2388 -4.6589 0.0000 0.0000 0.0000 32.9392 56.9151 1.8332 -31.5295 42.1688 -12.4238 0.0000 -0.0000 -64.4564 -18.4185 -5.5920 1.8586 7.1250 -0.0000 -0.0000 6.9292 -35.7995 1.5762
-1.0634 18.5932 0.8402 3.9928 -15.0042 -2.6810 0.0000 0.0000 0.0000 -11.3150 -4.6218 -8.7838 3.1618 10.9525 32.1199 0.0956 4.1621 -8.8269 1.1410 -6.7834 -19.0753 0.0000 0.0000 0.0000 21.5498 10.3778 0.0242 -2.5578 -9.9422 28.7897 -1.3001 -14.2048 -30.7950 -0.0122 -0.7141 1.9626 -0.6086 1.7074 2.3581 -1.4657 2.2477 0.5762 -1.2250 1.1237 -0.6952 -3.6299 0.8556 -13.5295 8.0657 0.3943 17.0926 3.2964 0.7061 7.4499 -0.0000 -0.0000 0.0000 -23.9993 -52.8864 -13.8731 34.8046 -44.6721 -14.6758 -0.0000 0.0000 -88.0999 18.0119 27.3062 8.4837 -7.1250 0.0000 -0.0000 -13.7159 57.9470 -4.4003 -0.0000 -0.0000 0.0000 25.3923 58.6548 -6.3469 -34.3330 44.3299 -14.3453 0.0000 -0.0000 -69.2431 -22.1815 -6.5206 2.6509 7.1250 -0.0000 -0.0000 3.8762 -36.9921 0.7651
-1.1312 18.5940 0.8323 4.2302 -14.1124 -2.8798 0.0000 0.0000 0.0000 -11.0214 -4.7625 -9.9820 3.4977 11.4602 33.8482 0.0575 3.2430 -6.8675 1.0890 -6.6321 -18.6300 0.0000 0.0000 0.0000 21.7188 10.1914 0.4373 -2.5233 -9.8801 28.5895 -1.3459 -14.7941 -31.6159 -0.0193 -0.8980 2.4682 -0.4113 1.7153 1.7734 -1.5783 2.2798 1.1729 -1.4191 1.1428 0.2560 -4.0092 1.0892 -11.9889 8.4612 0.6373 17.9506 3.5128 0.8127 7.4315 -0.0000 0.0000 0.0000 -18.2365 -52.2011 -18.0863 41.9409 -49.1787 -19.8958 -0.0000 0.0000 -94.7318 20.8356 29.1963 10.5170 -7.1250 0.0000 -0.0000 -11.7841 60.4692 -4.4815 -0.0000 0.0000 0.0000 18.3640 59.8160 -15.5329 -40.7829 48.5270 -19.0238 0.0000 -0.0000 -75.5573 -23.9606 -6.2282 2.7603 7.1250 -0.0000 -0.0000 2.3487 -36.7812 0.4751
